<?xml version="1.0" encoding="UTF-8" standalone="no"?>
<!DOCTYPE svg PUBLIC "-//W3C//DTD SVG 1.1//EN"
 "http://www.w3.org/Graphics/SVG/1.1/DTD/svg11.dtd">
<!-- Generated by graphviz version 2.43.0 (0)
 -->
<!-- Title: dc_scan_example Pages: 1 -->
<svg width="489pt" height="260pt"
 viewBox="0.00 0.00 489.00 260.00" xmlns="http://www.w3.org/2000/svg" xmlns:xlink="http://www.w3.org/1999/xlink">
<g id="graph0" class="graph" transform="scale(1 1) rotate(0) translate(4 256)">
<title>dc_scan_example</title>
<polygon fill="white" stroke="transparent" points="-4,4 -4,-256 485,-256 485,4 -4,4"/>
<!-- n00 -->
<g id="node1" class="node">
<title>n00</title>
<ellipse fill="lightgrey" stroke="lightgrey" cx="27" cy="-234" rx="27" ry="18"/>
<text text-anchor="middle" x="27" y="-230.3" font-family="Times,serif" font-size="14.00">1</text>
</g>
<!-- n01 -->
<g id="node2" class="node">
<title>n01</title>
<ellipse fill="lightgrey" stroke="lightgrey" cx="88" cy="-234" rx="27" ry="18"/>
<text text-anchor="middle" x="88" y="-230.3" font-family="Times,serif" font-size="14.00">2</text>
</g>
<!-- n00&#45;&gt;n01 -->
<!-- n10 -->
<g id="node9" class="node">
<title>n10</title>
<ellipse fill="lightgrey" stroke="lightgrey" cx="27" cy="-162" rx="27" ry="18"/>
<text text-anchor="middle" x="27" y="-158.3" font-family="Times,serif" font-size="14.00">1</text>
</g>
<!-- n00&#45;&gt;n10 -->
<!-- n11 -->
<g id="node10" class="node">
<title>n11</title>
<ellipse fill="yellow" stroke="yellow" cx="88" cy="-162" rx="27" ry="18"/>
<text text-anchor="middle" x="88" y="-158.3" font-family="Times,serif" font-size="14.00">3</text>
</g>
<!-- n00&#45;&gt;n11 -->
<g id="edge30" class="edge">
<title>n00&#45;&gt;n11</title>
<path fill="none" stroke="black" d="M39.94,-218.15C48.19,-208.69 59.04,-196.24 68.34,-185.56"/>
<polygon fill="black" stroke="black" points="71.15,-187.66 75.08,-177.82 65.87,-183.06 71.15,-187.66"/>
</g>
<!-- n02 -->
<g id="node3" class="node">
<title>n02</title>
<ellipse fill="lightgrey" stroke="lightgrey" cx="149" cy="-234" rx="27" ry="18"/>
<text text-anchor="middle" x="149" y="-230.3" font-family="Times,serif" font-size="14.00">3</text>
</g>
<!-- n01&#45;&gt;n02 -->
<!-- n03 -->
<g id="node4" class="node">
<title>n03</title>
<ellipse fill="lightgrey" stroke="lightgrey" cx="210" cy="-234" rx="27" ry="18"/>
<text text-anchor="middle" x="210" y="-230.3" font-family="Times,serif" font-size="14.00">4</text>
</g>
<!-- n02&#45;&gt;n03 -->
<!-- n12 -->
<g id="node11" class="node">
<title>n12</title>
<ellipse fill="lightgrey" stroke="lightgrey" cx="149" cy="-162" rx="27" ry="18"/>
<text text-anchor="middle" x="149" y="-158.3" font-family="Times,serif" font-size="14.00">3</text>
</g>
<!-- n02&#45;&gt;n12 -->
<!-- n13 -->
<g id="node12" class="node">
<title>n13</title>
<ellipse fill="yellow" stroke="yellow" cx="210" cy="-162" rx="27" ry="18"/>
<text text-anchor="middle" x="210" y="-158.3" font-family="Times,serif" font-size="14.00">7</text>
</g>
<!-- n02&#45;&gt;n13 -->
<g id="edge32" class="edge">
<title>n02&#45;&gt;n13</title>
<path fill="none" stroke="black" d="M161.94,-218.15C170.19,-208.69 181.04,-196.24 190.34,-185.56"/>
<polygon fill="black" stroke="black" points="193.15,-187.66 197.08,-177.82 187.87,-183.06 193.15,-187.66"/>
</g>
<!-- n04 -->
<g id="node5" class="node">
<title>n04</title>
<ellipse fill="lightgrey" stroke="lightgrey" cx="271" cy="-234" rx="27" ry="18"/>
<text text-anchor="middle" x="271" y="-230.3" font-family="Times,serif" font-size="14.00">5</text>
</g>
<!-- n03&#45;&gt;n04 -->
<!-- n05 -->
<g id="node6" class="node">
<title>n05</title>
<ellipse fill="lightgrey" stroke="lightgrey" cx="332" cy="-234" rx="27" ry="18"/>
<text text-anchor="middle" x="332" y="-230.3" font-family="Times,serif" font-size="14.00">6</text>
</g>
<!-- n04&#45;&gt;n05 -->
<!-- n14 -->
<g id="node13" class="node">
<title>n14</title>
<ellipse fill="lightgrey" stroke="lightgrey" cx="271" cy="-162" rx="27" ry="18"/>
<text text-anchor="middle" x="271" y="-158.3" font-family="Times,serif" font-size="14.00">5</text>
</g>
<!-- n04&#45;&gt;n14 -->
<!-- n15 -->
<g id="node14" class="node">
<title>n15</title>
<ellipse fill="yellow" stroke="yellow" cx="332" cy="-162" rx="27" ry="18"/>
<text text-anchor="middle" x="332" y="-158.3" font-family="Times,serif" font-size="14.00">11</text>
</g>
<!-- n04&#45;&gt;n15 -->
<g id="edge36" class="edge">
<title>n04&#45;&gt;n15</title>
<path fill="none" stroke="black" d="M283.94,-218.15C292.19,-208.69 303.04,-196.24 312.34,-185.56"/>
<polygon fill="black" stroke="black" points="315.15,-187.66 319.08,-177.82 309.87,-183.06 315.15,-187.66"/>
</g>
<!-- n06 -->
<g id="node7" class="node">
<title>n06</title>
<ellipse fill="lightgrey" stroke="lightgrey" cx="393" cy="-234" rx="27" ry="18"/>
<text text-anchor="middle" x="393" y="-230.3" font-family="Times,serif" font-size="14.00">7</text>
</g>
<!-- n05&#45;&gt;n06 -->
<!-- n07 -->
<g id="node8" class="node">
<title>n07</title>
<ellipse fill="lightgrey" stroke="lightgrey" cx="454" cy="-234" rx="27" ry="18"/>
<text text-anchor="middle" x="454" y="-230.3" font-family="Times,serif" font-size="14.00">8</text>
</g>
<!-- n06&#45;&gt;n07 -->
<!-- n16 -->
<g id="node15" class="node">
<title>n16</title>
<ellipse fill="lightgrey" stroke="lightgrey" cx="393" cy="-162" rx="27" ry="18"/>
<text text-anchor="middle" x="393" y="-158.3" font-family="Times,serif" font-size="14.00">7</text>
</g>
<!-- n06&#45;&gt;n16 -->
<!-- n17 -->
<g id="node16" class="node">
<title>n17</title>
<ellipse fill="yellow" stroke="yellow" cx="454" cy="-162" rx="27" ry="18"/>
<text text-anchor="middle" x="454" y="-158.3" font-family="Times,serif" font-size="14.00">15</text>
</g>
<!-- n06&#45;&gt;n17 -->
<g id="edge34" class="edge">
<title>n06&#45;&gt;n17</title>
<path fill="none" stroke="black" d="M405.94,-218.15C414.19,-208.69 425.04,-196.24 434.34,-185.56"/>
<polygon fill="black" stroke="black" points="437.15,-187.66 441.08,-177.82 431.87,-183.06 437.15,-187.66"/>
</g>
<!-- n10&#45;&gt;n11 -->
<!-- n20 -->
<g id="node17" class="node">
<title>n20</title>
<ellipse fill="lightgrey" stroke="lightgrey" cx="27" cy="-90" rx="27" ry="18"/>
<text text-anchor="middle" x="27" y="-86.3" font-family="Times,serif" font-size="14.00">1</text>
</g>
<!-- n10&#45;&gt;n20 -->
<!-- n11&#45;&gt;n12 -->
<!-- n22 -->
<g id="node19" class="node">
<title>n22</title>
<ellipse fill="yellow" stroke="yellow" cx="149" cy="-90" rx="27" ry="18"/>
<text text-anchor="middle" x="149" y="-86.3" font-family="Times,serif" font-size="14.00">6</text>
</g>
<!-- n11&#45;&gt;n22 -->
<g id="edge38" class="edge">
<title>n11&#45;&gt;n22</title>
<path fill="none" stroke="black" d="M100.94,-146.15C109.19,-136.69 120.04,-124.24 129.34,-113.56"/>
<polygon fill="black" stroke="black" points="132.15,-115.66 136.08,-105.82 126.87,-111.06 132.15,-115.66"/>
</g>
<!-- n23 -->
<g id="node20" class="node">
<title>n23</title>
<ellipse fill="yellow" stroke="yellow" cx="210" cy="-90" rx="27" ry="18"/>
<text text-anchor="middle" x="210" y="-86.3" font-family="Times,serif" font-size="14.00">10</text>
</g>
<!-- n11&#45;&gt;n23 -->
<g id="edge39" class="edge">
<title>n11&#45;&gt;n23</title>
<path fill="none" stroke="black" d="M107.87,-149.6C127.81,-138.16 158.73,-120.42 181.32,-107.46"/>
<polygon fill="black" stroke="black" points="183.2,-110.41 190.14,-102.4 179.72,-104.34 183.2,-110.41"/>
</g>
<!-- n12&#45;&gt;n13 -->
<!-- n13&#45;&gt;n14 -->
<!-- n14&#45;&gt;n15 -->
<!-- n15&#45;&gt;n16 -->
<!-- n25 -->
<g id="node22" class="node">
<title>n25</title>
<ellipse fill="lightgrey" stroke="lightgrey" cx="332" cy="-90" rx="27" ry="18"/>
<text text-anchor="middle" x="332" y="-86.3" font-family="Times,serif" font-size="14.00">11</text>
</g>
<!-- n15&#45;&gt;n25 -->
<!-- n26 -->
<g id="node23" class="node">
<title>n26</title>
<ellipse fill="yellow" stroke="yellow" cx="393" cy="-90" rx="27" ry="18"/>
<text text-anchor="middle" x="393" y="-86.3" font-family="Times,serif" font-size="14.00">18</text>
</g>
<!-- n15&#45;&gt;n26 -->
<g id="edge41" class="edge">
<title>n15&#45;&gt;n26</title>
<path fill="none" stroke="black" d="M344.94,-146.15C353.19,-136.69 364.04,-124.24 373.34,-113.56"/>
<polygon fill="black" stroke="black" points="376.15,-115.66 380.08,-105.82 370.87,-111.06 376.15,-115.66"/>
</g>
<!-- n27 -->
<g id="node24" class="node">
<title>n27</title>
<ellipse fill="yellow" stroke="yellow" cx="454" cy="-90" rx="27" ry="18"/>
<text text-anchor="middle" x="454" y="-86.3" font-family="Times,serif" font-size="14.00">26</text>
</g>
<!-- n15&#45;&gt;n27 -->
<g id="edge42" class="edge">
<title>n15&#45;&gt;n27</title>
<path fill="none" stroke="black" d="M351.87,-149.6C371.81,-138.16 402.73,-120.42 425.32,-107.46"/>
<polygon fill="black" stroke="black" points="427.2,-110.41 434.14,-102.4 423.72,-104.34 427.2,-110.41"/>
</g>
<!-- n16&#45;&gt;n17 -->
<!-- n21 -->
<g id="node18" class="node">
<title>n21</title>
<ellipse fill="lightgrey" stroke="lightgrey" cx="88" cy="-90" rx="27" ry="18"/>
<text text-anchor="middle" x="88" y="-86.3" font-family="Times,serif" font-size="14.00">3</text>
</g>
<!-- n20&#45;&gt;n21 -->
<!-- n21&#45;&gt;n22 -->
<!-- n22&#45;&gt;n23 -->
<!-- n24 -->
<g id="node21" class="node">
<title>n24</title>
<ellipse fill="lightgrey" stroke="lightgrey" cx="271" cy="-90" rx="27" ry="18"/>
<text text-anchor="middle" x="271" y="-86.3" font-family="Times,serif" font-size="14.00">5</text>
</g>
<!-- n23&#45;&gt;n24 -->
<!-- n33 -->
<g id="node28" class="node">
<title>n33</title>
<ellipse fill="lightgrey" stroke="lightgrey" cx="210" cy="-18" rx="27" ry="18"/>
<text text-anchor="middle" x="210" y="-14.3" font-family="Times,serif" font-size="14.00">10</text>
</g>
<!-- n23&#45;&gt;n33 -->
<!-- n24&#45;&gt;n25 -->
<!-- n25&#45;&gt;n26 -->
<!-- n26&#45;&gt;n27 -->
<!-- n30 -->
<g id="node25" class="node">
<title>n30</title>
<ellipse fill="lightgrey" stroke="lightgrey" cx="27" cy="-18" rx="27" ry="18"/>
<text text-anchor="middle" x="27" y="-14.3" font-family="Times,serif" font-size="14.00">1</text>
</g>
<!-- n31 -->
<g id="node26" class="node">
<title>n31</title>
<ellipse fill="lightgrey" stroke="lightgrey" cx="88" cy="-18" rx="27" ry="18"/>
<text text-anchor="middle" x="88" y="-14.3" font-family="Times,serif" font-size="14.00">3</text>
</g>
<!-- n30&#45;&gt;n31 -->
<!-- n32 -->
<g id="node27" class="node">
<title>n32</title>
<ellipse fill="lightgrey" stroke="lightgrey" cx="149" cy="-18" rx="27" ry="18"/>
<text text-anchor="middle" x="149" y="-14.3" font-family="Times,serif" font-size="14.00">6</text>
</g>
<!-- n31&#45;&gt;n32 -->
<!-- n32&#45;&gt;n33 -->
<!-- n34 -->
<g id="node29" class="node">
<title>n34</title>
<ellipse fill="yellow" stroke="yellow" cx="271" cy="-18" rx="27" ry="18"/>
<text text-anchor="middle" x="271" y="-14.3" font-family="Times,serif" font-size="14.00">15</text>
</g>
<!-- n33&#45;&gt;n34 -->
<!-- n34&#45;&gt;n23 -->
<g id="edge44" class="edge">
<title>n34&#45;&gt;n23</title>
<path fill="none" stroke="black" d="M251.34,-41.56C242.04,-52.24 231.19,-64.69 222.94,-74.15"/>
<polygon fill="black" stroke="black" points="254.15,-43.66 258.08,-33.82 248.87,-39.06 254.15,-43.66"/>
</g>
<!-- n35 -->
<g id="node30" class="node">
<title>n35</title>
<ellipse fill="yellow" stroke="yellow" cx="332" cy="-18" rx="27" ry="18"/>
<text text-anchor="middle" x="332" y="-14.3" font-family="Times,serif" font-size="14.00">21</text>
</g>
<!-- n34&#45;&gt;n35 -->
<!-- n35&#45;&gt;n23 -->
<g id="edge45" class="edge">
<title>n35&#45;&gt;n23</title>
<path fill="none" stroke="black" d="M303.32,-35.46C280.73,-48.42 249.81,-66.16 229.87,-77.6"/>
<polygon fill="black" stroke="black" points="305.2,-38.41 312.14,-30.4 301.72,-32.34 305.2,-38.41"/>
</g>
<!-- n36 -->
<g id="node31" class="node">
<title>n36</title>
<ellipse fill="yellow" stroke="yellow" cx="393" cy="-18" rx="27" ry="18"/>
<text text-anchor="middle" x="393" y="-14.3" font-family="Times,serif" font-size="14.00">28</text>
</g>
<!-- n35&#45;&gt;n36 -->
<!-- n36&#45;&gt;n23 -->
<g id="edge46" class="edge">
<title>n36&#45;&gt;n23</title>
<path fill="none" stroke="black" d="M364.11,-35.09C363.41,-35.4 362.7,-35.71 362,-36 310.22,-57.61 292.78,-50.39 241,-72 237.26,-73.56 233.39,-75.45 229.7,-77.39"/>
<polygon fill="black" stroke="black" points="365.84,-38.14 373.3,-30.61 362.77,-31.85 365.84,-38.14"/>
</g>
<!-- n37 -->
<g id="node32" class="node">
<title>n37</title>
<ellipse fill="yellow" stroke="yellow" cx="454" cy="-18" rx="27" ry="18"/>
<text text-anchor="middle" x="454" y="-14.3" font-family="Times,serif" font-size="14.00">36</text>
</g>
<!-- n36&#45;&gt;n37 -->
<!-- n37&#45;&gt;n23 -->
<g id="edge47" class="edge">
<title>n37&#45;&gt;n23</title>
<path fill="none" stroke="black" d="M425.59,-35C424.72,-35.36 423.86,-35.69 423,-36 345.5,-64.15 318.5,-43.85 241,-72 237.08,-73.43 233.05,-75.29 229.25,-77.27"/>
<polygon fill="black" stroke="black" points="427.16,-38.13 434.75,-30.73 424.2,-31.79 427.16,-38.13"/>
</g>
</g>
</svg>
