<?xml version="1.0" encoding="UTF-8" standalone="no"?>
<!DOCTYPE svg PUBLIC "-//W3C//DTD SVG 1.1//EN"
 "http://www.w3.org/Graphics/SVG/1.1/DTD/svg11.dtd">
<!-- Generated by graphviz version 2.43.0 (0)
 -->
<!-- Title: gbwt Pages: 1 -->
<svg width="432pt" height="140pt"
 viewBox="0.00 0.00 432.00 140.00" xmlns="http://www.w3.org/2000/svg" xmlns:xlink="http://www.w3.org/1999/xlink">
<g id="graph0" class="graph" transform="scale(1 1) rotate(0) translate(4 136)">
<title>gbwt</title>
<polygon fill="white" stroke="transparent" points="-4,4 -4,-136 428,-136 428,4 -4,4"/>
<g id="clust1" class="cluster">
<title>cluster_grid</title>
<polygon fill="lightgray" stroke="lightgray" points="8,-8 8,-124 416,-124 416,-8 8,-8"/>
<text text-anchor="middle" x="212" y="-108.8" font-family="Times,serif" font-size="14.00">Grid</text>
</g>
<g id="clust2" class="cluster">
<title>cluster_b2</title>
<polygon fill="white" stroke="white" points="242,-16 242,-93 408,-93 408,-16 242,-16"/>
<text text-anchor="middle" x="325" y="-77.8" font-family="Times,serif" font-size="14.00">Block</text>
</g>
<g id="clust3" class="cluster">
<title>cluster_b12</title>
</g>
<g id="clust4" class="cluster">
<title>cluster_b1</title>
<polygon fill="white" stroke="white" points="16,-16 16,-93 182,-93 182,-16 16,-16"/>
<text text-anchor="middle" x="99" y="-77.8" font-family="Times,serif" font-size="14.00">Block</text>
</g>
<!-- w11 -->
<g id="node1" class="node">
<title>w11</title>
<polygon fill="none" stroke="black" points="400,-62 346,-62 346,-24 400,-24 400,-62"/>
<text text-anchor="middle" x="373" y="-46.8" font-family="Times,serif" font-size="14.00">Warp</text>
<text text-anchor="middle" x="373" y="-31.8" font-family="Times,serif" font-size="14.00">↓...↓</text>
</g>
<!-- s1112 -->
<g id="node2" class="node">
<title>s1112</title>
<text text-anchor="middle" x="325" y="-39.3" font-family="Times,serif" font-size="14.00">...</text>
</g>
<!-- w12 -->
<g id="node3" class="node">
<title>w12</title>
<polygon fill="none" stroke="black" points="304,-62 250,-62 250,-24 304,-24 304,-62"/>
<text text-anchor="middle" x="277" y="-46.8" font-family="Times,serif" font-size="14.00">Warp</text>
<text text-anchor="middle" x="277" y="-31.8" font-family="Times,serif" font-size="14.00">↓...↓</text>
</g>
<!-- s12 -->
<g id="node4" class="node">
<title>s12</title>
<text text-anchor="middle" x="212" y="-39.3" font-family="Times,serif" font-size="14.00">...</text>
</g>
<!-- w21 -->
<g id="node5" class="node">
<title>w21</title>
<polygon fill="none" stroke="black" points="174,-62 120,-62 120,-24 174,-24 174,-62"/>
<text text-anchor="middle" x="147" y="-46.8" font-family="Times,serif" font-size="14.00">Warp</text>
<text text-anchor="middle" x="147" y="-31.8" font-family="Times,serif" font-size="14.00">↓...↓</text>
</g>
<!-- s2122 -->
<g id="node6" class="node">
<title>s2122</title>
<text text-anchor="middle" x="99" y="-39.3" font-family="Times,serif" font-size="14.00">...</text>
</g>
<!-- w22 -->
<g id="node7" class="node">
<title>w22</title>
<polygon fill="none" stroke="black" points="78,-62 24,-62 24,-24 78,-24 78,-62"/>
<text text-anchor="middle" x="51" y="-46.8" font-family="Times,serif" font-size="14.00">Warp</text>
<text text-anchor="middle" x="51" y="-31.8" font-family="Times,serif" font-size="14.00">↓...↓</text>
</g>
</g>
</svg>
