<?xml version="1.0" encoding="UTF-8" standalone="no"?>
<!DOCTYPE svg PUBLIC "-//W3C//DTD SVG 1.1//EN"
 "http://www.w3.org/Graphics/SVG/1.1/DTD/svg11.dtd">
<!-- Generated by graphviz version 2.43.0 (0)
 -->
<!-- Title: gpu Pages: 1 -->
<svg width="384pt" height="256pt"
 viewBox="0.00 0.00 384.00 256.00" xmlns="http://www.w3.org/2000/svg" xmlns:xlink="http://www.w3.org/1999/xlink">
<g id="graph0" class="graph" transform="scale(1 1) rotate(0) translate(4 252)">
<title>gpu</title>
<polygon fill="white" stroke="transparent" points="-4,4 -4,-252 380,-252 380,4 -4,4"/>
<g id="clust1" class="cluster">
<title>cluster_r</title>
<polygon fill="lightgrey" stroke="black" points="67,-8 67,-60 349,-60 349,-8 67,-8"/>
</g>
<g id="clust2" class="cluster">
<title>cluster_pu1</title>
<polygon fill="lightgrey" stroke="black" points="8,-188 8,-240 368,-240 368,-188 8,-188"/>
</g>
<g id="clust4" class="cluster">
<title>cluster_pu2</title>
<polygon fill="lightgrey" stroke="black" points="8,-128 8,-180 368,-180 368,-128 8,-128"/>
</g>
<g id="clust5" class="cluster">
<title>cluster_pu3</title>
<polygon fill="lightgrey" stroke="black" points="8,-68 8,-120 368,-120 368,-68 8,-68"/>
</g>
<!-- r -->
<g id="node1" class="node">
<title>r</title>
<polygon fill="yellow" stroke="yellow" points="341,-52 75,-52 75,-16 341,-16 341,-52"/>
<text text-anchor="middle" x="208" y="-30.3" font-family="Times,serif" font-size="14.00">DRAM</text>
</g>
<!-- s1 -->
<g id="node2" class="node">
<title>s1</title>
<polygon fill="yellow" stroke="yellow" points="72,-232 16,-232 16,-196 72,-196 72,-232"/>
<text text-anchor="middle" x="44" y="-210.3" font-family="Times,serif" font-size="14.00">SRAM</text>
</g>
<!-- pu11 -->
<g id="node3" class="node">
<title>pu11</title>
<polygon fill="white" stroke="white" points="144,-232 90,-232 90,-196 144,-196 144,-232"/>
<text text-anchor="middle" x="117" y="-210.3" font-family="Times,serif" font-size="14.00">PU</text>
</g>
<!-- s1&#45;&#45;pu11 -->
<!-- s2 -->
<g id="node7" class="node">
<title>s2</title>
<polygon fill="yellow" stroke="yellow" points="72,-172 16,-172 16,-136 72,-136 72,-172"/>
<text text-anchor="middle" x="44" y="-150.3" font-family="Times,serif" font-size="14.00">SRAM</text>
</g>
<!-- s1&#45;&#45;s2 -->
<!-- pu12 -->
<g id="node4" class="node">
<title>pu12</title>
<polygon fill="white" stroke="white" points="216,-232 162,-232 162,-196 216,-196 216,-232"/>
<text text-anchor="middle" x="189" y="-210.3" font-family="Times,serif" font-size="14.00">PU</text>
</g>
<!-- pu11&#45;&#45;pu12 -->
<!-- pu21 -->
<g id="node8" class="node">
<title>pu21</title>
<polygon fill="white" stroke="white" points="144,-172 90,-172 90,-136 144,-136 144,-172"/>
<text text-anchor="middle" x="117" y="-150.3" font-family="Times,serif" font-size="14.00">PU</text>
</g>
<!-- pu11&#45;&#45;pu21 -->
<!-- pu13 -->
<g id="node5" class="node">
<title>pu13</title>
<polygon fill="white" stroke="white" points="288,-232 234,-232 234,-196 288,-196 288,-232"/>
<text text-anchor="middle" x="261" y="-210.3" font-family="Times,serif" font-size="14.00">PU</text>
</g>
<!-- pu12&#45;&#45;pu13 -->
<!-- pu22 -->
<g id="node9" class="node">
<title>pu22</title>
<polygon fill="white" stroke="white" points="216,-172 162,-172 162,-136 216,-136 216,-172"/>
<text text-anchor="middle" x="189" y="-150.3" font-family="Times,serif" font-size="14.00">PU</text>
</g>
<!-- pu12&#45;&#45;pu22 -->
<!-- pu14 -->
<g id="node6" class="node">
<title>pu14</title>
<polygon fill="white" stroke="white" points="360,-232 306,-232 306,-196 360,-196 360,-232"/>
<text text-anchor="middle" x="333" y="-210.3" font-family="Times,serif" font-size="14.00">PU</text>
</g>
<!-- pu13&#45;&#45;pu14 -->
<!-- pu23 -->
<g id="node10" class="node">
<title>pu23</title>
<polygon fill="white" stroke="white" points="288,-172 234,-172 234,-136 288,-136 288,-172"/>
<text text-anchor="middle" x="261" y="-150.3" font-family="Times,serif" font-size="14.00">PU</text>
</g>
<!-- pu13&#45;&#45;pu23 -->
<!-- pu24 -->
<g id="node11" class="node">
<title>pu24</title>
<polygon fill="white" stroke="white" points="360,-172 306,-172 306,-136 360,-136 360,-172"/>
<text text-anchor="middle" x="333" y="-150.3" font-family="Times,serif" font-size="14.00">PU</text>
</g>
<!-- pu14&#45;&#45;pu24 -->
<!-- s3 -->
<g id="node12" class="node">
<title>s3</title>
<polygon fill="yellow" stroke="yellow" points="72,-112 16,-112 16,-76 72,-76 72,-112"/>
<text text-anchor="middle" x="44" y="-90.3" font-family="Times,serif" font-size="14.00">SRAM</text>
</g>
<!-- s2&#45;&#45;s3 -->
<!-- pu31 -->
<g id="node13" class="node">
<title>pu31</title>
<polygon fill="white" stroke="white" points="144,-112 90,-112 90,-76 144,-76 144,-112"/>
<text text-anchor="middle" x="117" y="-90.3" font-family="Times,serif" font-size="14.00">PU</text>
</g>
<!-- pu21&#45;&#45;pu31 -->
<!-- pu32 -->
<g id="node14" class="node">
<title>pu32</title>
<polygon fill="white" stroke="white" points="216,-112 162,-112 162,-76 216,-76 216,-112"/>
<text text-anchor="middle" x="189" y="-90.3" font-family="Times,serif" font-size="14.00">PU</text>
</g>
<!-- pu22&#45;&#45;pu32 -->
<!-- pu33 -->
<g id="node15" class="node">
<title>pu33</title>
<polygon fill="white" stroke="white" points="288,-112 234,-112 234,-76 288,-76 288,-112"/>
<text text-anchor="middle" x="261" y="-90.3" font-family="Times,serif" font-size="14.00">PU</text>
</g>
<!-- pu23&#45;&#45;pu33 -->
<!-- pu34 -->
<g id="node16" class="node">
<title>pu34</title>
<polygon fill="white" stroke="white" points="360,-112 306,-112 306,-76 360,-76 360,-112"/>
<text text-anchor="middle" x="333" y="-90.3" font-family="Times,serif" font-size="14.00">PU</text>
</g>
<!-- pu24&#45;&#45;pu34 -->
<!-- pu32&#45;&#45;r -->
<!-- pu33&#45;&#45;r -->
</g>
</svg>
