<?xml version="1.0" encoding="UTF-8" standalone="no"?>
<!DOCTYPE svg PUBLIC "-//W3C//DTD SVG 1.1//EN"
 "http://www.w3.org/Graphics/SVG/1.1/DTD/svg11.dtd">
<!-- Generated by graphviz version 2.43.0 (0)
 -->
<!-- Title: host_accel Pages: 1 -->
<svg width="358pt" height="143pt"
 viewBox="0.00 0.00 358.00 143.00" xmlns="http://www.w3.org/2000/svg" xmlns:xlink="http://www.w3.org/1999/xlink">
<g id="graph0" class="graph" transform="scale(1 1) rotate(0) translate(4 139)">
<title>host_accel</title>
<polygon fill="white" stroke="transparent" points="-4,4 -4,-139 354,-139 354,4 -4,4"/>
<g id="clust1" class="cluster">
<title>cluster_host</title>
<polygon fill="lightgrey" stroke="black" points="8,-8 8,-127 140,-127 140,-8 8,-8"/>
<text text-anchor="middle" x="74" y="-111.8" font-family="Times,serif" font-size="14.00">Host</text>
</g>
<g id="clust2" class="cluster">
<title>cluster_pci_e</title>
</g>
<g id="clust3" class="cluster">
<title>cluster_accel</title>
<polygon fill="lightgrey" stroke="black" points="232,-8 232,-127 342,-127 342,-8 232,-8"/>
<text text-anchor="middle" x="287" y="-111.8" font-family="Times,serif" font-size="14.00">Accelerator</text>
</g>
<!-- CPU -->
<g id="node1" class="node">
<title>CPU</title>
<polygon fill="white" stroke="white" points="101,-96 47,-96 47,-60 101,-60 101,-96"/>
<text text-anchor="middle" x="74" y="-74.3" font-family="Times,serif" font-size="14.00">CPU</text>
</g>
<!-- RAM -->
<g id="node2" class="node">
<title>RAM</title>
<polygon fill="yellow" stroke="yellow" points="131.5,-52 16.5,-52 16.5,-16 131.5,-16 131.5,-52"/>
<text text-anchor="middle" x="74" y="-30.3" font-family="Times,serif" font-size="14.00">RAM</text>
</g>
<!-- CPU&#45;&#45;RAM -->
<g id="edge1" class="edge">
<title>CPU&#45;&#45;RAM</title>
<path fill="none" stroke="black" d="M74,-59.85C74,-57.29 74,-54.66 74,-52.11"/>
</g>
<!-- PCI&#45;E -->
<g id="node4" class="node">
<title>PCI&#45;E</title>
<polygon fill="none" stroke="black" points="213,-52 159,-52 159,-16 213,-16 213,-52"/>
<text text-anchor="middle" x="186" y="-30.3" font-family="Times,serif" font-size="14.00">PCI&#45;E</text>
</g>
<!-- RAM&#45;&#45;PCI&#45;E -->
<g id="edge4" class="edge">
<title>RAM&#45;&#45;PCI&#45;E</title>
<path fill="none" stroke="black" d="M140,-34C146.64,-34 153.1,-34 158.96,-34"/>
</g>
<!-- dummy -->
<!-- dummy&#45;&#45;PCI&#45;E -->
<!-- DRAM -->
<g id="node6" class="node">
<title>DRAM</title>
<polygon fill="yellow" stroke="yellow" points="334,-52 240,-52 240,-16 334,-16 334,-52"/>
<text text-anchor="middle" x="287" y="-30.3" font-family="Times,serif" font-size="14.00">DRAM</text>
</g>
<!-- PCI&#45;E&#45;&#45;DRAM -->
<g id="edge5" class="edge">
<title>PCI&#45;E&#45;&#45;DRAM</title>
<path fill="none" stroke="black" d="M213.07,-34C218.98,-34 225.44,-34 232,-34"/>
</g>
<!-- GPU -->
<g id="node5" class="node">
<title>GPU</title>
<polygon fill="white" stroke="white" points="314,-96 260,-96 260,-60 314,-60 314,-96"/>
<text text-anchor="middle" x="287" y="-74.3" font-family="Times,serif" font-size="14.00">GPU</text>
</g>
<!-- GPU&#45;&#45;DRAM -->
<g id="edge3" class="edge">
<title>GPU&#45;&#45;DRAM</title>
<path fill="none" stroke="black" d="M287,-59.85C287,-57.29 287,-54.66 287,-52.11"/>
</g>
</g>
</svg>
