<?xml version="1.0" encoding="UTF-8" standalone="no"?>
<!DOCTYPE svg PUBLIC "-//W3C//DTD SVG 1.1//EN"
 "http://www.w3.org/Graphics/SVG/1.1/DTD/svg11.dtd">
<!-- Generated by graphviz version 2.43.0 (0)
 -->
<!-- Title: multi_cpu Pages: 1 -->
<svg width="340pt" height="148pt"
 viewBox="0.00 0.00 340.00 148.00" xmlns="http://www.w3.org/2000/svg" xmlns:xlink="http://www.w3.org/1999/xlink">
<g id="graph0" class="graph" transform="scale(1 1) rotate(0) translate(4 144)">
<title>multi_cpu</title>
<polygon fill="white" stroke="transparent" points="-4,4 -4,-144 336,-144 336,4 -4,4"/>
<g id="clust1" class="cluster">
<title>cluster_1</title>
<polygon fill="lightgrey" stroke="black" points="8,-8 8,-132 162,-132 162,-8 8,-8"/>
</g>
<g id="clust3" class="cluster">
<title>cluster_2</title>
<polygon fill="lightgrey" stroke="black" points="170,-8 170,-132 324,-132 324,-8 170,-8"/>
</g>
<!-- cpu11 -->
<g id="node1" class="node">
<title>cpu11</title>
<polygon fill="white" stroke="white" points="76,-124 22,-124 22,-88 76,-88 76,-124"/>
<text text-anchor="middle" x="49" y="-102.3" font-family="Times,serif" font-size="14.00">CPU</text>
</g>
<!-- cpu12 -->
<g id="node2" class="node">
<title>cpu12</title>
<polygon fill="white" stroke="white" points="148,-124 94,-124 94,-88 148,-88 148,-124"/>
<text text-anchor="middle" x="121" y="-102.3" font-family="Times,serif" font-size="14.00">CPU</text>
</g>
<!-- cpu11&#45;&#45;cpu12 -->
<!-- r1 -->
<g id="node3" class="node">
<title>r1</title>
<polygon fill="yellow" stroke="yellow" points="153.5,-52 16.5,-52 16.5,-16 153.5,-16 153.5,-52"/>
<text text-anchor="middle" x="85" y="-30.3" font-family="Times,serif" font-size="14.00">RAM</text>
</g>
<!-- cpu11&#45;&#45;r1 -->
<g id="edge3" class="edge">
<title>cpu11&#45;&#45;r1</title>
<path fill="none" stroke="black" d="M49,-87.83C49,-77 49,-63.29 49,-52.41"/>
</g>
<!-- cpu12&#45;&#45;r1 -->
<g id="edge4" class="edge">
<title>cpu12&#45;&#45;r1</title>
<path fill="none" stroke="black" d="M121,-87.83C121,-77 121,-63.29 121,-52.41"/>
</g>
<!-- r2 -->
<g id="node6" class="node">
<title>r2</title>
<polygon fill="yellow" stroke="yellow" points="315.5,-52 178.5,-52 178.5,-16 315.5,-16 315.5,-52"/>
<text text-anchor="middle" x="247" y="-30.3" font-family="Times,serif" font-size="14.00">RAM</text>
</g>
<!-- r1&#45;&#45;r2 -->
<g id="edge7" class="edge">
<title>r1&#45;&#45;r2</title>
<path fill="none" stroke="black" d="M153.7,-34C161.9,-34 170.26,-34 178.45,-34"/>
</g>
<!-- cpu21 -->
<g id="node4" class="node">
<title>cpu21</title>
<polygon fill="white" stroke="white" points="238,-124 184,-124 184,-88 238,-88 238,-124"/>
<text text-anchor="middle" x="211" y="-102.3" font-family="Times,serif" font-size="14.00">CPU</text>
</g>
<!-- cpu22 -->
<g id="node5" class="node">
<title>cpu22</title>
<polygon fill="white" stroke="white" points="310,-124 256,-124 256,-88 310,-88 310,-124"/>
<text text-anchor="middle" x="283" y="-102.3" font-family="Times,serif" font-size="14.00">CPU</text>
</g>
<!-- cpu21&#45;&#45;cpu22 -->
<!-- cpu21&#45;&#45;r2 -->
<g id="edge5" class="edge">
<title>cpu21&#45;&#45;r2</title>
<path fill="none" stroke="black" d="M211,-87.83C211,-77 211,-63.29 211,-52.41"/>
</g>
<!-- cpu22&#45;&#45;r2 -->
<g id="edge6" class="edge">
<title>cpu22&#45;&#45;r2</title>
<path fill="none" stroke="black" d="M283,-87.83C283,-77 283,-63.29 283,-52.41"/>
</g>
</g>
</svg>
