<?xml version="1.0" encoding="UTF-8" standalone="no"?>
<!DOCTYPE svg PUBLIC "-//W3C//DTD SVG 1.1//EN"
 "http://www.w3.org/Graphics/SVG/1.1/DTD/svg11.dtd">
<!-- Generated by graphviz version 2.43.0 (0)
 -->
<!-- Title: parall_diverse_tasks Pages: 1 -->
<svg width="310pt" height="182pt"
 viewBox="0.00 0.00 310.00 182.00" xmlns="http://www.w3.org/2000/svg" xmlns:xlink="http://www.w3.org/1999/xlink">
<g id="graph0" class="graph" transform="scale(1 1) rotate(0) translate(4 178)">
<title>parall_diverse_tasks</title>
<polygon fill="white" stroke="transparent" points="-4,4 -4,-178 306,-178 306,4 -4,4"/>
<g id="clust1" class="cluster">
<title>cluster_d</title>
<polygon fill="lightgrey" stroke="lightgrey" points="116,-91 116,-166 186,-166 186,-91 116,-91"/>
<text text-anchor="middle" x="151" y="-150.8" font-family="Times,serif" font-size="14.00">Data</text>
</g>
<g id="clust2" class="cluster">
<title>cluster_t</title>
<polygon fill="lightgrey" stroke="lightgrey" points="8,-8 8,-83 294,-83 294,-8 8,-8"/>
<text text-anchor="middle" x="151" y="-67.8" font-family="Times,serif" font-size="14.00">Tasks</text>
</g>
<!-- d -->
<g id="node1" class="node">
<title>d</title>
<ellipse fill="white" stroke="white" cx="151" cy="-117" rx="27" ry="18"/>
<text text-anchor="middle" x="151" y="-113.3" font-family="Times,serif" font-size="14.00">d</text>
</g>
<!-- t1 -->
<g id="node2" class="node">
<title>t1</title>
<polygon fill="white" stroke="white" points="70,-52 16,-52 16,-16 70,-16 70,-52"/>
<text text-anchor="middle" x="43" y="-30.3" font-family="Times,serif" font-size="14.00">T1</text>
</g>
<!-- d&#45;&gt;t1 -->
<g id="edge4" class="edge">
<title>d&#45;&gt;t1</title>
<path fill="none" stroke="black" d="M133.65,-102.99C117.65,-90.99 93.53,-72.9 74.19,-58.39"/>
<polygon fill="black" stroke="black" points="76.06,-55.42 65.96,-52.22 71.86,-61.02 76.06,-55.42"/>
</g>
<!-- t2 -->
<g id="node3" class="node">
<title>t2</title>
<polygon fill="white" stroke="white" points="142,-52 88,-52 88,-16 142,-16 142,-52"/>
<text text-anchor="middle" x="115" y="-30.3" font-family="Times,serif" font-size="14.00">T2</text>
</g>
<!-- d&#45;&gt;t2 -->
<g id="edge5" class="edge">
<title>d&#45;&gt;t2</title>
<path fill="none" stroke="black" d="M143.71,-99.61C138.88,-88.74 132.43,-74.23 126.87,-61.71"/>
<polygon fill="black" stroke="black" points="129.91,-59.92 122.65,-52.21 123.51,-62.77 129.91,-59.92"/>
</g>
<!-- t3 -->
<g id="node4" class="node">
<title>t3</title>
<polygon fill="white" stroke="white" points="214,-52 160,-52 160,-16 214,-16 214,-52"/>
<text text-anchor="middle" x="187" y="-30.3" font-family="Times,serif" font-size="14.00">T3</text>
</g>
<!-- d&#45;&gt;t3 -->
<g id="edge6" class="edge">
<title>d&#45;&gt;t3</title>
<path fill="none" stroke="black" d="M158.29,-99.61C163.12,-88.74 169.57,-74.23 175.13,-61.71"/>
<polygon fill="black" stroke="black" points="178.49,-62.77 179.35,-52.21 172.09,-59.92 178.49,-62.77"/>
</g>
<!-- t4 -->
<g id="node5" class="node">
<title>t4</title>
<polygon fill="white" stroke="white" points="286,-52 232,-52 232,-16 286,-16 286,-52"/>
<text text-anchor="middle" x="259" y="-30.3" font-family="Times,serif" font-size="14.00">T4</text>
</g>
<!-- d&#45;&gt;t4 -->
<g id="edge7" class="edge">
<title>d&#45;&gt;t4</title>
<path fill="none" stroke="black" d="M168.35,-102.99C184.35,-90.99 208.47,-72.9 227.81,-58.39"/>
<polygon fill="black" stroke="black" points="230.14,-61.02 236.04,-52.22 225.94,-55.42 230.14,-61.02"/>
</g>
<!-- t1&#45;&gt;t2 -->
<!-- t2&#45;&gt;t3 -->
<!-- t3&#45;&gt;t4 -->
</g>
</svg>
