<?xml version="1.0" encoding="UTF-8" standalone="no"?>
<!DOCTYPE svg PUBLIC "-//W3C//DTD SVG 1.1//EN"
 "http://www.w3.org/Graphics/SVG/1.1/DTD/svg11.dtd">
<!-- Generated by graphviz version 2.43.0 (0)
 -->
<!-- Title: parall_similar_tasks Pages: 1 -->
<svg width="310pt" height="182pt"
 viewBox="0.00 0.00 310.00 182.00" xmlns="http://www.w3.org/2000/svg" xmlns:xlink="http://www.w3.org/1999/xlink">
<g id="graph0" class="graph" transform="scale(1 1) rotate(0) translate(4 178)">
<title>parall_similar_tasks</title>
<polygon fill="white" stroke="transparent" points="-4,4 -4,-178 306,-178 306,4 -4,4"/>
<g id="clust1" class="cluster">
<title>cluster_d</title>
<polygon fill="lightgrey" stroke="lightgrey" points="8,-91 8,-166 294,-166 294,-91 8,-91"/>
<text text-anchor="middle" x="151" y="-150.8" font-family="Times,serif" font-size="14.00">Data</text>
</g>
<g id="clust3" class="cluster">
<title>cluster_t</title>
<polygon fill="lightgrey" stroke="lightgrey" points="8,-8 8,-83 294,-83 294,-8 8,-8"/>
<text text-anchor="middle" x="151" y="-67.8" font-family="Times,serif" font-size="14.00">Tasks</text>
</g>
<!-- d1 -->
<g id="node1" class="node">
<title>d1</title>
<ellipse fill="white" stroke="white" cx="43" cy="-117" rx="27" ry="18"/>
<text text-anchor="middle" x="43" y="-113.3" font-family="Times,serif" font-size="14.00">d1</text>
</g>
<!-- d2 -->
<g id="node2" class="node">
<title>d2</title>
<ellipse fill="white" stroke="white" cx="115" cy="-117" rx="27" ry="18"/>
<text text-anchor="middle" x="115" y="-113.3" font-family="Times,serif" font-size="14.00">d2</text>
</g>
<!-- d1&#45;&gt;d2 -->
<!-- t1 -->
<g id="node5" class="node">
<title>t1</title>
<polygon fill="white" stroke="white" points="70,-52 16,-52 16,-16 70,-16 70,-52"/>
<text text-anchor="middle" x="43" y="-30.3" font-family="Times,serif" font-size="14.00">T</text>
</g>
<!-- d1&#45;&gt;t1 -->
<g id="edge4" class="edge">
<title>d1&#45;&gt;t1</title>
<path fill="none" stroke="black" d="M43,-98.82C43,-88.19 43,-74.31 43,-62.2"/>
<polygon fill="black" stroke="black" points="46.5,-62.15 43,-52.15 39.5,-62.15 46.5,-62.15"/>
</g>
<!-- d3 -->
<g id="node3" class="node">
<title>d3</title>
<ellipse fill="white" stroke="white" cx="187" cy="-117" rx="27" ry="18"/>
<text text-anchor="middle" x="187" y="-113.3" font-family="Times,serif" font-size="14.00">d3</text>
</g>
<!-- d2&#45;&gt;d3 -->
<!-- t2 -->
<g id="node6" class="node">
<title>t2</title>
<polygon fill="white" stroke="white" points="142,-52 88,-52 88,-16 142,-16 142,-52"/>
<text text-anchor="middle" x="115" y="-30.3" font-family="Times,serif" font-size="14.00">T</text>
</g>
<!-- d2&#45;&gt;t2 -->
<g id="edge5" class="edge">
<title>d2&#45;&gt;t2</title>
<path fill="none" stroke="black" d="M115,-98.82C115,-88.19 115,-74.31 115,-62.2"/>
<polygon fill="black" stroke="black" points="118.5,-62.15 115,-52.15 111.5,-62.15 118.5,-62.15"/>
</g>
<!-- d4 -->
<g id="node4" class="node">
<title>d4</title>
<ellipse fill="white" stroke="white" cx="259" cy="-117" rx="27" ry="18"/>
<text text-anchor="middle" x="259" y="-113.3" font-family="Times,serif" font-size="14.00">d4</text>
</g>
<!-- d3&#45;&gt;d4 -->
<!-- t3 -->
<g id="node7" class="node">
<title>t3</title>
<polygon fill="white" stroke="white" points="214,-52 160,-52 160,-16 214,-16 214,-52"/>
<text text-anchor="middle" x="187" y="-30.3" font-family="Times,serif" font-size="14.00">T</text>
</g>
<!-- d3&#45;&gt;t3 -->
<g id="edge6" class="edge">
<title>d3&#45;&gt;t3</title>
<path fill="none" stroke="black" d="M187,-98.82C187,-88.19 187,-74.31 187,-62.2"/>
<polygon fill="black" stroke="black" points="190.5,-62.15 187,-52.15 183.5,-62.15 190.5,-62.15"/>
</g>
<!-- t4 -->
<g id="node8" class="node">
<title>t4</title>
<polygon fill="white" stroke="white" points="286,-52 232,-52 232,-16 286,-16 286,-52"/>
<text text-anchor="middle" x="259" y="-30.3" font-family="Times,serif" font-size="14.00">T</text>
</g>
<!-- d4&#45;&gt;t4 -->
<g id="edge7" class="edge">
<title>d4&#45;&gt;t4</title>
<path fill="none" stroke="black" d="M259,-98.82C259,-88.19 259,-74.31 259,-62.2"/>
<polygon fill="black" stroke="black" points="262.5,-62.15 259,-52.15 255.5,-62.15 262.5,-62.15"/>
</g>
</g>
</svg>
