<?xml version="1.0" encoding="UTF-8" standalone="no"?>
<!DOCTYPE svg PUBLIC "-//W3C//DTD SVG 1.1//EN"
 "http://www.w3.org/Graphics/SVG/1.1/DTD/svg11.dtd">
<!-- Generated by graphviz version 2.43.0 (0)
 -->
<!-- Title: sample_placement Pages: 1 -->
<svg width="218pt" height="404pt"
 viewBox="0.00 0.00 218.24 404.00" xmlns="http://www.w3.org/2000/svg" xmlns:xlink="http://www.w3.org/1999/xlink">
<g id="graph0" class="graph" transform="scale(1 1) rotate(0) translate(4 400)">
<title>sample_placement</title>
<polygon fill="white" stroke="transparent" points="-4,4 -4,-400 214.24,-400 214.24,4 -4,4"/>
<!-- for -->
<g id="node1" class="node">
<title>for</title>
<ellipse fill="none" stroke="black" cx="134.24" cy="-378" rx="27" ry="18"/>
<text text-anchor="middle" x="134.24" y="-374.3" font-family="Times,serif" font-size="14.00">for</text>
</g>
<!-- initial assignment -->
<g id="node2" class="node">
<title>initial assignment</title>
<ellipse fill="none" stroke="black" cx="134.24" cy="-306" rx="73.39" ry="18"/>
<text text-anchor="middle" x="134.24" y="-302.3" font-family="Times,serif" font-size="14.00">initial assignment</text>
</g>
<!-- for&#45;&gt;initial assignment -->
<g id="edge1" class="edge">
<title>for&#45;&gt;initial assignment</title>
<path fill="none" stroke="black" d="M134.24,-359.7C134.24,-351.98 134.24,-342.71 134.24,-334.11"/>
<polygon fill="black" stroke="black" points="137.74,-334.1 134.24,-324.1 130.74,-334.1 137.74,-334.1"/>
</g>
<!-- condition -->
<g id="node3" class="node">
<title>condition</title>
<ellipse fill="none" stroke="black" cx="134.24" cy="-234" rx="44.39" ry="18"/>
<text text-anchor="middle" x="134.24" y="-230.3" font-family="Times,serif" font-size="14.00">condition</text>
</g>
<!-- initial assignment&#45;&gt;condition -->
<g id="edge2" class="edge">
<title>initial assignment&#45;&gt;condition</title>
<path fill="none" stroke="black" d="M134.24,-287.7C134.24,-279.98 134.24,-270.71 134.24,-262.11"/>
<polygon fill="black" stroke="black" points="137.74,-262.1 134.24,-252.1 130.74,-262.1 137.74,-262.1"/>
</g>
<!-- code -->
<g id="node4" class="node">
<title>code</title>
<ellipse fill="none" stroke="black" cx="85.24" cy="-90" rx="27.1" ry="18"/>
<text text-anchor="middle" x="85.24" y="-86.3" font-family="Times,serif" font-size="14.00">code</text>
</g>
<!-- condition&#45;&gt;code -->
<g id="edge3" class="edge">
<title>condition&#45;&gt;code</title>
<path fill="none" stroke="red" d="M92.61,-227.85C63.05,-221.78 25.35,-208.6 6.24,-180 -2.65,-166.7 -1.29,-158.12 6.24,-144 16.08,-125.56 35.5,-112.39 52.62,-103.8"/>
<polygon fill="red" stroke="red" points="54.25,-106.9 61.82,-99.49 51.28,-100.56 54.25,-106.9"/>
</g>
<!-- final assignment -->
<g id="node5" class="node">
<title>final assignment</title>
<ellipse fill="none" stroke="black" cx="85.24" cy="-162" rx="69.59" ry="18"/>
<text text-anchor="middle" x="85.24" y="-158.3" font-family="Times,serif" font-size="14.00">final assignment</text>
</g>
<!-- condition&#45;&gt;final assignment -->
<g id="edge4" class="edge">
<title>condition&#45;&gt;final assignment</title>
<path fill="none" stroke="red" d="M116.89,-208.21C110.34,-198.85 103.05,-188.43 97.11,-179.96"/>
<polygon fill="red" stroke="red" points="114.03,-210.23 122.63,-216.41 119.76,-206.21 114.03,-210.23"/>
</g>
<!-- end -->
<g id="node6" class="node">
<title>end</title>
<ellipse fill="none" stroke="black" cx="183.24" cy="-18" rx="27" ry="18"/>
<text text-anchor="middle" x="183.24" y="-14.3" font-family="Times,serif" font-size="14.00">end</text>
</g>
<!-- condition&#45;&gt;end -->
<g id="edge7" class="edge">
<title>condition&#45;&gt;end</title>
<path fill="none" stroke="red" d="M145.78,-216.61C152.3,-206.53 159.97,-193.06 164.24,-180 179.03,-134.82 182.57,-79.17 183.28,-46.54"/>
<polygon fill="red" stroke="red" points="186.78,-46.45 183.42,-36.4 179.78,-46.35 186.78,-46.45"/>
</g>
<!-- code&#45;&gt;end -->
<!-- final assignment&#45;&gt;code -->
<g id="edge5" class="edge">
<title>final assignment&#45;&gt;code</title>
<path fill="none" stroke="red" d="M85.24,-133.67C85.24,-125.05 85.24,-115.79 85.24,-108.1"/>
<polygon fill="red" stroke="red" points="81.74,-133.7 85.24,-143.7 88.74,-133.7 81.74,-133.7"/>
</g>
</g>
</svg>
