<?xml version="1.0" encoding="UTF-8" standalone="no"?>
<!DOCTYPE svg PUBLIC "-//W3C//DTD SVG 1.1//EN"
 "http://www.w3.org/Graphics/SVG/1.1/DTD/svg11.dtd">
<!-- Generated by graphviz version 2.43.0 (0)
 -->
<!-- Title: simd Pages: 1 -->
<svg width="352pt" height="242pt"
 viewBox="0.00 0.00 352.00 242.00" xmlns="http://www.w3.org/2000/svg" xmlns:xlink="http://www.w3.org/1999/xlink">
<g id="graph0" class="graph" transform="scale(1 1) rotate(0) translate(4 238)">
<title>simd</title>
<polygon fill="white" stroke="transparent" points="-4,4 -4,-238 348,-238 348,4 -4,4"/>
<g id="clust1" class="cluster">
<title>cluster_data</title>
<polygon fill="lightgrey" stroke="lightgrey" points="8,-151 8,-226 261,-226 261,-151 8,-151"/>
<text text-anchor="middle" x="134.5" y="-210.8" font-family="Times,serif" font-size="14.00">Data</text>
</g>
<g id="clust3" class="cluster">
<title>cluster_pu</title>
<polygon fill="lightgrey" stroke="lightgrey" points="8,-91 8,-143 261,-143 261,-91 8,-91"/>
</g>
<g id="clust5" class="cluster">
<title>cluster_instructions</title>
<polygon fill="lightgrey" stroke="lightgrey" points="256,-8 256,-83 336,-83 336,-8 256,-8"/>
<text text-anchor="middle" x="296" y="-67.8" font-family="Times,serif" font-size="14.00">Instructions</text>
</g>
<!-- d1 -->
<g id="node1" class="node">
<title>d1</title>
<ellipse fill="white" stroke="white" cx="43" cy="-177" rx="27" ry="18"/>
<text text-anchor="middle" x="43" y="-173.3" font-family="Times,serif" font-size="14.00">d1</text>
</g>
<!-- d2 -->
<g id="node2" class="node">
<title>d2</title>
<ellipse fill="white" stroke="white" cx="104" cy="-177" rx="27" ry="18"/>
<text text-anchor="middle" x="104" y="-173.3" font-family="Times,serif" font-size="14.00">d2</text>
</g>
<!-- d1&#45;&gt;d2 -->
<!-- pu1 -->
<g id="node5" class="node">
<title>pu1</title>
<polygon fill="white" stroke="white" points="70,-135 16,-135 16,-99 70,-99 70,-135"/>
<text text-anchor="middle" x="43" y="-113.3" font-family="Times,serif" font-size="14.00">PU</text>
</g>
<!-- d1&#45;&gt;pu1 -->
<g id="edge9" class="edge">
<title>d1&#45;&gt;pu1</title>
<path fill="none" stroke="black" d="M43,-159C43,-159 43,-145.4 43,-145.4"/>
<polygon fill="black" stroke="black" points="46.5,-145.4 43,-135.4 39.5,-145.4 46.5,-145.4"/>
</g>
<!-- d3 -->
<g id="node3" class="node">
<title>d3</title>
<ellipse fill="white" stroke="white" cx="165" cy="-177" rx="27" ry="18"/>
<text text-anchor="middle" x="165" y="-173.3" font-family="Times,serif" font-size="14.00">d3</text>
</g>
<!-- d2&#45;&gt;d3 -->
<!-- pu2 -->
<g id="node6" class="node">
<title>pu2</title>
<polygon fill="white" stroke="white" points="131,-135 77,-135 77,-99 131,-99 131,-135"/>
<text text-anchor="middle" x="104" y="-113.3" font-family="Times,serif" font-size="14.00">PU</text>
</g>
<!-- d2&#45;&gt;pu2 -->
<g id="edge10" class="edge">
<title>d2&#45;&gt;pu2</title>
<path fill="none" stroke="black" d="M104,-159C104,-159 104,-145.4 104,-145.4"/>
<polygon fill="black" stroke="black" points="107.5,-145.4 104,-135.4 100.5,-145.4 107.5,-145.4"/>
</g>
<!-- d4 -->
<g id="node4" class="node">
<title>d4</title>
<ellipse fill="white" stroke="white" cx="226" cy="-177" rx="27" ry="18"/>
<text text-anchor="middle" x="226" y="-173.3" font-family="Times,serif" font-size="14.00">d4</text>
</g>
<!-- d3&#45;&gt;d4 -->
<!-- pu3 -->
<g id="node7" class="node">
<title>pu3</title>
<polygon fill="white" stroke="white" points="192,-135 138,-135 138,-99 192,-99 192,-135"/>
<text text-anchor="middle" x="165" y="-113.3" font-family="Times,serif" font-size="14.00">PU</text>
</g>
<!-- d3&#45;&gt;pu3 -->
<g id="edge11" class="edge">
<title>d3&#45;&gt;pu3</title>
<path fill="none" stroke="black" d="M165,-159C165,-159 165,-145.4 165,-145.4"/>
<polygon fill="black" stroke="black" points="168.5,-145.4 165,-135.4 161.5,-145.4 168.5,-145.4"/>
</g>
<!-- pu4 -->
<g id="node8" class="node">
<title>pu4</title>
<polygon fill="white" stroke="white" points="253,-135 199,-135 199,-99 253,-99 253,-135"/>
<text text-anchor="middle" x="226" y="-113.3" font-family="Times,serif" font-size="14.00">PU</text>
</g>
<!-- d4&#45;&gt;pu4 -->
<g id="edge12" class="edge">
<title>d4&#45;&gt;pu4</title>
<path fill="none" stroke="black" d="M226,-159C226,-159 226,-145.4 226,-145.4"/>
<polygon fill="black" stroke="black" points="229.5,-145.4 226,-135.4 222.5,-145.4 229.5,-145.4"/>
</g>
<!-- pu1&#45;&gt;pu2 -->
<!-- pu2&#45;&gt;pu3 -->
<!-- pu3&#45;&gt;pu4 -->
<!-- i -->
<g id="node9" class="node">
<title>i</title>
<ellipse fill="white" stroke="white" cx="296" cy="-34" rx="27" ry="18"/>
<text text-anchor="middle" x="296" y="-30.3" font-family="Times,serif" font-size="14.00">i</text>
</g>
<!-- i&#45;&gt;pu1 -->
<g id="edge13" class="edge">
<title>i&#45;&gt;pu1:s</title>
<path fill="none" stroke="black" d="M274.43,-23C213.25,-23 43,-23 43,-23 43,-23 43,-89 43,-89"/>
<polygon fill="black" stroke="black" points="39.5,-89 43,-99 46.5,-89 39.5,-89"/>
</g>
<!-- i&#45;&gt;pu2 -->
<g id="edge14" class="edge">
<title>i&#45;&gt;pu2:s</title>
<path fill="none" stroke="black" d="M269.3,-30C216.55,-30 104,-30 104,-30 104,-30 104,-89 104,-89"/>
<polygon fill="black" stroke="black" points="100.5,-89 104,-99 107.5,-89 100.5,-89"/>
</g>
<!-- i&#45;&gt;pu3 -->
<g id="edge15" class="edge">
<title>i&#45;&gt;pu3:s</title>
<path fill="none" stroke="black" d="M269.17,-37C230.85,-37 165,-37 165,-37 165,-37 165,-89 165,-89"/>
<polygon fill="black" stroke="black" points="161.5,-89 165,-99 168.5,-89 161.5,-89"/>
</g>
<!-- i&#45;&gt;pu4 -->
<g id="edge16" class="edge">
<title>i&#45;&gt;pu4:s</title>
<path fill="none" stroke="black" d="M273.47,-44C253,-44 226,-44 226,-44 226,-44 226,-89 226,-89"/>
<polygon fill="black" stroke="black" points="222.5,-89 226,-99 229.5,-89 222.5,-89"/>
</g>
<!-- i0 -->
<!-- i1 -->
<!-- i0&#45;&gt;i1 -->
<!-- i1&#45;&gt;i -->
</g>
</svg>
